<?xml version="1.0" encoding="UTF-8"?>
<!DOCTYPE svg PUBLIC "-//W3C//DTD SVG 1.1//EN" "http://www.w3.org/Graphics/SVG/1.1/DTD/svg11.dtd">
<svg xmlns="http://www.w3.org/2000/svg" version="1.1" width="1587px" height="2245px" style="shape-rendering:geometricPrecision; text-rendering:geometricPrecision; image-rendering:optimizeQuality; fill-rule:evenodd; clip-rule:evenodd" xmlns:xlink="http://www.w3.org/1999/xlink">
<g><path style="opacity:1" fill="#fefefe" d="M -0.5,-0.5 C 528.5,-0.5 1057.5,-0.5 1586.5,-0.5C 1586.5,747.833 1586.5,1496.17 1586.5,2244.5C 1057.5,2244.5 528.5,2244.5 -0.5,2244.5C -0.5,1496.17 -0.5,747.833 -0.5,-0.5 Z"/></g>
<g><path style="opacity:1" fill="#ffb283" d="M 664.5,1039.5 C 681.659,1038.5 698.992,1038.17 716.5,1038.5C 716.737,1039.79 716.404,1040.79 715.5,1041.5C 698.866,1039.51 681.866,1038.85 664.5,1039.5 Z"/></g>
<g><path style="opacity:1" fill="#fe914d" d="M 664.5,1039.5 C 681.866,1038.85 698.866,1039.51 715.5,1041.5C 714.908,1044.13 714.575,1046.79 714.5,1049.5C 702.788,1102.73 691.455,1156.06 680.5,1209.5C 669.5,1209.5 658.5,1209.5 647.5,1209.5C 644.5,1209.5 641.5,1209.5 638.5,1209.5C 637.812,1205.42 636.812,1201.42 635.5,1197.5C 635.428,1195.69 634.595,1194.36 633,1193.5C 631.316,1195.02 629.816,1196.68 628.5,1198.5C 612.959,1211.05 595.625,1214.38 576.5,1208.5C 567.241,1203.72 562.075,1196.05 561,1185.5C 560.5,1178.51 560.334,1171.51 560.5,1164.5C 561.745,1155.76 563.411,1147.1 565.5,1138.5C 569.83,1126.32 576.83,1115.82 586.5,1107C 603.219,1095.47 620.552,1094.47 638.5,1104C 640.879,1106.6 642.879,1109.43 644.5,1112.5C 644.971,1113.9 645.638,1115.23 646.5,1116.5C 647.298,1116.04 647.631,1115.38 647.5,1114.5C 653.06,1089.48 658.726,1064.48 664.5,1039.5 Z"/></g>
<g><path style="opacity:1" fill="#fe914e" d="M 784.5,1060.5 C 786.036,1076.92 778.703,1086.75 762.5,1090C 756.796,1090.69 751.13,1090.52 745.5,1089.5C 734.213,1084.47 730.046,1075.81 733,1063.5C 736.429,1055.07 742.596,1049.9 751.5,1048C 760.186,1046.61 768.519,1047.61 776.5,1051C 779.783,1053.77 782.45,1056.94 784.5,1060.5 Z"/></g>
<g><path style="opacity:1" fill="#fe914d" d="M 304.5,1059.5 C 306.72,1083.48 308.72,1107.48 310.5,1131.5C 310.192,1133.92 310.526,1136.26 311.5,1138.5C 312.107,1138.38 312.44,1138.04 312.5,1137.5C 315.09,1132.65 317.424,1127.65 319.5,1122.5C 333.059,1098.39 346.392,1074.06 359.5,1049.5C 381.49,1048.5 403.49,1048.17 425.5,1048.5C 424.417,1052.08 423.751,1055.75 423.5,1059.5C 412.419,1109.28 401.753,1159.28 391.5,1209.5C 376.833,1209.5 362.167,1209.5 347.5,1209.5C 343.167,1209.5 338.833,1209.5 334.5,1209.5C 338.244,1190.45 342.244,1171.45 346.5,1152.5C 350.438,1135.53 353.938,1118.53 357,1101.5C 337.333,1137.17 317.667,1172.83 298,1208.5C 289.919,1209.48 281.752,1209.82 273.5,1209.5C 269.833,1209.5 266.167,1209.5 262.5,1209.5C 260.482,1185.66 258.149,1161.99 255.5,1138.5C 254.33,1124.47 252.83,1110.47 251,1096.5C 242.734,1134.1 234.901,1171.77 227.5,1209.5C 224.167,1209.5 220.833,1209.5 217.5,1209.5C 213.167,1209.5 208.833,1209.5 204.5,1209.5C 215.371,1155.81 226.371,1102.14 237.5,1048.5C 259.5,1048.5 281.5,1048.5 303.5,1048.5C 304.114,1052.14 304.448,1055.8 304.5,1059.5 Z"/></g>
<g><path style="opacity:1" fill="#08bf64" d="M 1096.5,1062.5 C 1098.23,1077.2 1091.9,1086.37 1077.5,1090C 1071.13,1090.71 1064.8,1090.54 1058.5,1089.5C 1048.57,1084.63 1044.74,1076.63 1047,1065.5C 1050.35,1056.39 1056.85,1050.89 1066.5,1049C 1077.02,1046.84 1086.18,1049.34 1094,1056.5C 1095.12,1058.41 1095.96,1060.41 1096.5,1062.5 Z"/></g>
<g><path style="opacity:1" fill="#9a9998" d="M 714.5,1049.5 C 718.884,1049.17 723.217,1049.51 727.5,1050.5C 714.859,1107.04 702.859,1163.7 691.5,1220.5C 677.5,1220.5 663.5,1220.5 649.5,1220.5C 649.249,1216.75 648.583,1213.08 647.5,1209.5C 658.5,1209.5 669.5,1209.5 680.5,1209.5C 691.455,1156.06 702.788,1102.73 714.5,1049.5 Z"/></g>
<g><path style="opacity:1" fill="#03bf63" d="M 868.5,1060.5 C 869.334,1091.84 870.5,1123.18 872,1154.5C 875.41,1147.02 878.243,1139.35 880.5,1131.5C 891.266,1104.72 901.766,1077.72 912,1050.5C 928.423,1049.51 944.923,1049.18 961.5,1049.5C 961.185,1053.37 961.518,1057.04 962.5,1060.5C 963.779,1092.2 965.613,1123.86 968,1155.5C 971.135,1147.93 973.969,1140.26 976.5,1132.5C 987.335,1105.34 998.002,1078.01 1008.5,1050.5C 1017.17,1049.17 1025.83,1049.17 1034.5,1050.5C 1033.35,1053.94 1032.02,1057.28 1030.5,1060.5C 1012.12,1108.92 993.457,1157.26 974.5,1205.5C 959.515,1206.5 944.515,1206.83 929.5,1206.5C 925.833,1206.5 922.167,1206.5 918.5,1206.5C 917.969,1187.81 916.969,1169.14 915.5,1150.5C 915.269,1142.49 914.935,1134.49 914.5,1126.5C 914.813,1123.75 914.48,1121.09 913.5,1118.5C 912.893,1118.62 912.56,1118.96 912.5,1119.5C 900.634,1148.43 888.968,1177.43 877.5,1206.5C 861.167,1206.5 844.833,1206.5 828.5,1206.5C 824.833,1206.5 821.167,1206.5 817.5,1206.5C 814.344,1154.15 811.01,1101.82 807.5,1049.5C 827.5,1049.5 847.5,1049.5 867.5,1049.5C 867.185,1053.37 867.518,1057.04 868.5,1060.5 Z"/></g>
<g><path style="opacity:1" fill="#9b9999" d="M 304.5,1059.5 C 307.833,1059.5 311.167,1059.5 314.5,1059.5C 316.132,1080.5 317.798,1101.5 319.5,1122.5C 317.424,1127.65 315.09,1132.65 312.5,1137.5C 311.833,1135.5 311.167,1133.5 310.5,1131.5C 308.72,1107.48 306.72,1083.48 304.5,1059.5 Z"/></g>
<g><path style="opacity:1" fill="#9a9998" d="M 423.5,1059.5 C 427.884,1059.17 432.217,1059.51 436.5,1060.5C 424.532,1113.7 413.199,1167.04 402.5,1220.5C 383.833,1220.5 365.167,1220.5 346.5,1220.5C 346.942,1216.85 347.276,1213.18 347.5,1209.5C 362.167,1209.5 376.833,1209.5 391.5,1209.5C 401.753,1159.28 412.419,1109.28 423.5,1059.5 Z"/></g>
<g><path style="opacity:1" fill="#9b9a99" d="M 784.5,1060.5 C 795.802,1067.01 798.635,1076.34 793,1088.5C 788.98,1094.08 783.814,1098.08 777.5,1100.5C 770.5,1100.5 763.5,1100.5 756.5,1100.5C 754.231,1099.02 751.898,1097.52 749.5,1096C 747.266,1094.36 745.933,1092.2 745.5,1089.5C 751.13,1090.52 756.796,1090.69 762.5,1090C 778.703,1086.75 786.036,1076.92 784.5,1060.5 Z"/></g>
<g><path style="opacity:1" fill="#9a9b9a" d="M 868.5,1060.5 C 871.833,1060.5 875.167,1060.5 878.5,1060.5C 879.467,1084.16 880.134,1107.82 880.5,1131.5C 878.243,1139.35 875.41,1147.02 872,1154.5C 870.5,1123.18 869.334,1091.84 868.5,1060.5 Z"/></g>
<g><path style="opacity:1" fill="#999a99" d="M 962.5,1060.5 C 965.833,1060.5 969.167,1060.5 972.5,1060.5C 973.557,1084.53 974.89,1108.53 976.5,1132.5C 973.969,1140.26 971.135,1147.93 968,1155.5C 965.613,1123.86 963.779,1092.2 962.5,1060.5 Z"/></g>
<g><path style="opacity:1" fill="#989999" d="M 1030.5,1060.5 C 1035.51,1060.33 1040.51,1060.5 1045.5,1061C 1024.95,1112.66 1004.78,1164.49 985,1216.5C 966.576,1217.49 948.076,1217.83 929.5,1217.5C 929.5,1213.83 929.5,1210.17 929.5,1206.5C 944.515,1206.83 959.515,1206.5 974.5,1205.5C 993.457,1157.26 1012.12,1108.92 1030.5,1060.5 Z"/></g>
<g><path style="opacity:1" fill="#979c9a" d="M 1096.5,1062.5 C 1106.11,1066.73 1109.61,1074.07 1107,1084.5C 1104.22,1092.78 1098.72,1098.11 1090.5,1100.5C 1073.83,1100.5 1057.17,1100.5 1040.5,1100.5C 1049.32,1099.67 1058.32,1099.17 1067.5,1099C 1062.94,1097.28 1059.94,1094.11 1058.5,1089.5C 1064.8,1090.54 1071.13,1090.71 1077.5,1090C 1091.9,1086.37 1098.23,1077.2 1096.5,1062.5 Z"/></g>
<g><path style="opacity:1" fill="#fe914e" d="M 551.5,1116.5 C 556.426,1131.01 554.759,1144.85 546.5,1158C 522.502,1158.5 498.502,1158.67 474.5,1158.5C 472.159,1168.13 471.992,1177.8 474,1187.5C 475.452,1192.86 478.619,1194.86 483.5,1193.5C 493.102,1189.57 499.102,1182.57 501.5,1172.5C 515.5,1172.5 529.5,1172.5 543.5,1172.5C 543.309,1176.26 542.642,1179.93 541.5,1183.5C 540.185,1189.6 538.185,1195.44 535.5,1201C 508.6,1212.13 480.934,1214.46 452.5,1208C 449.022,1206.76 445.689,1205.26 442.5,1203.5C 427.866,1193.9 420.866,1180.24 421.5,1162.5C 422.241,1131.61 437.241,1111.44 466.5,1102C 489.174,1096 511.84,1096 534.5,1102C 541.931,1104.94 547.598,1109.78 551.5,1116.5 Z"/></g>
<g><path style="opacity:1" fill="#06bf64" d="M 1204.5,1113.5 C 1202.52,1118.96 1200.85,1124.63 1199.5,1130.5C 1192.53,1131.5 1185.53,1131.83 1178.5,1131.5C 1174.77,1131.82 1171.11,1131.49 1167.5,1130.5C 1168.31,1128.93 1168.64,1127.26 1168.5,1125.5C 1168.91,1116.74 1164.91,1113.24 1156.5,1115C 1147.99,1119.96 1146.32,1126.63 1151.5,1135C 1153.86,1136.18 1156.19,1137.35 1158.5,1138.5C 1169.59,1140.7 1180.26,1144.2 1190.5,1149C 1194.45,1152.44 1197.78,1156.27 1200.5,1160.5C 1204.82,1178.4 1199.16,1191.9 1183.5,1201C 1173.69,1205.52 1163.35,1207.85 1152.5,1208C 1134.95,1209.44 1117.62,1208.28 1100.5,1204.5C 1096.72,1203.57 1093.05,1202.24 1089.5,1200.5C 1089.17,1199.33 1088.83,1198.17 1088.5,1197C 1090.03,1189.86 1091.36,1182.69 1092.5,1175.5C 1103.83,1175.5 1115.17,1175.5 1126.5,1175.5C 1126.32,1179.23 1126.66,1182.9 1127.5,1186.5C 1129.31,1190.31 1132.31,1191.98 1136.5,1191.5C 1145.53,1192.47 1150.19,1188.47 1150.5,1179.5C 1149.91,1176.39 1148.24,1173.89 1145.5,1172C 1135.66,1168 1125.66,1164.5 1115.5,1161.5C 1100.64,1151.73 1096.47,1138.4 1103,1121.5C 1111.81,1108.83 1123.98,1101.33 1139.5,1099C 1161.05,1095.56 1182.05,1097.56 1202.5,1105C 1203.67,1105.42 1204.67,1106.09 1205.5,1107C 1204.58,1109.04 1204.24,1111.21 1204.5,1113.5 Z"/></g>
<g><path style="opacity:1" fill="#05bf63" d="M 1340.5,1116.5 C 1344.17,1130.15 1342.5,1143.15 1335.5,1155.5C 1312.18,1156.5 1288.84,1156.83 1265.5,1156.5C 1263.21,1166.14 1263.04,1175.8 1265,1185.5C 1266.37,1191.1 1269.54,1192.76 1274.5,1190.5C 1283.71,1186.95 1289.37,1180.28 1291.5,1170.5C 1305.17,1170.5 1318.83,1170.5 1332.5,1170.5C 1331.67,1174.14 1331.01,1177.8 1330.5,1181.5C 1328.74,1187.04 1326.74,1192.54 1324.5,1198C 1299.71,1208.64 1274.04,1211.31 1247.5,1206C 1242.91,1204.7 1238.58,1202.87 1234.5,1200.5C 1220.08,1191.49 1213.41,1178.32 1214.5,1161C 1215.14,1129.72 1230.47,1109.72 1260.5,1101C 1281.6,1096.08 1302.6,1096.41 1323.5,1102C 1330.91,1104.91 1336.57,1109.75 1340.5,1116.5 Z"/></g>
<g><path style="opacity:1" fill="#9a9998" d="M 255.5,1138.5 C 249.321,1165.73 243.654,1193.06 238.5,1220.5C 230.833,1220.5 223.167,1220.5 215.5,1220.5C 216.326,1216.86 216.992,1213.2 217.5,1209.5C 220.833,1209.5 224.167,1209.5 227.5,1209.5C 234.901,1171.77 242.734,1134.1 251,1096.5C 252.83,1110.47 254.33,1124.47 255.5,1138.5 Z"/></g>
<g><path style="opacity:1" fill="#fe914d" d="M 756.5,1100.5 C 763.5,1100.5 770.5,1100.5 777.5,1100.5C 776.674,1104.14 776.008,1107.8 775.5,1111.5C 768.076,1144.03 761.076,1176.7 754.5,1209.5C 741.5,1209.5 728.5,1209.5 715.5,1209.5C 711.167,1209.5 706.833,1209.5 702.5,1209.5C 710.274,1173.19 717.941,1136.86 725.5,1100.5C 735.833,1100.5 746.167,1100.5 756.5,1100.5 Z"/></g>
<g><path style="opacity:1" fill="#06bf63" d="M 1040.5,1100.5 C 1057.17,1100.5 1073.83,1100.5 1090.5,1100.5C 1089.83,1104.17 1089.17,1107.83 1088.5,1111.5C 1081.77,1142.78 1074.77,1174.12 1067.5,1205.5C 1055.18,1206.5 1042.85,1206.83 1030.5,1206.5C 1026.12,1206.83 1021.78,1206.49 1017.5,1205.5C 1024.8,1170.3 1032.47,1135.3 1040.5,1100.5 Z"/></g>
<g><path style="opacity:1" fill="#9a9998" d="M 346.5,1152.5 C 333.697,1174.83 321.03,1197.33 308.5,1220C 296.838,1220.5 285.171,1220.67 273.5,1220.5C 273.5,1216.83 273.5,1213.17 273.5,1209.5C 281.752,1209.82 289.919,1209.48 298,1208.5C 317.667,1172.83 337.333,1137.17 357,1101.5C 353.938,1118.53 350.438,1135.53 346.5,1152.5 Z"/></g>
<g><path style="opacity:1" fill="#9a9998" d="M 775.5,1111.5 C 779.833,1111.5 784.167,1111.5 788.5,1111.5C 780.675,1147.8 773.008,1184.13 765.5,1220.5C 748.5,1220.5 731.5,1220.5 714.5,1220.5C 714.942,1216.85 715.276,1213.18 715.5,1209.5C 728.5,1209.5 741.5,1209.5 754.5,1209.5C 761.076,1176.7 768.076,1144.03 775.5,1111.5 Z"/></g>
<g><path style="opacity:1" fill="#989998" d="M 1088.5,1111.5 C 1092.5,1111.5 1096.5,1111.5 1100.5,1111.5C 1093.17,1146.83 1085.83,1182.17 1078.5,1217.5C 1061.83,1217.67 1045.16,1217.5 1028.5,1217C 1029.74,1213.64 1030.41,1210.14 1030.5,1206.5C 1042.85,1206.83 1055.18,1206.5 1067.5,1205.5C 1074.77,1174.12 1081.77,1142.78 1088.5,1111.5 Z"/></g>
<g><path style="opacity:1" fill="#a19e9c" d="M 644.5,1112.5 C 646.027,1112.43 647.027,1113.09 647.5,1114.5C 647.631,1115.38 647.298,1116.04 646.5,1116.5C 645.638,1115.23 644.971,1113.9 644.5,1112.5 Z"/></g>
<g><path style="opacity:1" fill="#9a9a9a" d="M 1204.5,1113.5 C 1207.18,1114.23 1209.85,1115.06 1212.5,1116C 1214.18,1116.35 1215.18,1117.35 1215.5,1119C 1213.43,1126.76 1211.77,1134.59 1210.5,1142.5C 1199.81,1142.83 1189.15,1142.5 1178.5,1141.5C 1179.83,1138.14 1179.83,1134.8 1178.5,1131.5C 1185.53,1131.83 1192.53,1131.5 1199.5,1130.5C 1200.85,1124.63 1202.52,1118.96 1204.5,1113.5 Z"/></g>
<g><path style="opacity:1" fill="#979998" d="M 1168.5,1125.5 C 1162.18,1127.49 1158.85,1131.83 1158.5,1138.5C 1156.19,1137.35 1153.86,1136.18 1151.5,1135C 1146.32,1126.63 1147.99,1119.96 1156.5,1115C 1164.91,1113.24 1168.91,1116.74 1168.5,1125.5 Z"/></g>
<g><path style="opacity:1" fill="#989999" d="M 1297.5,1125.5 C 1289.59,1129.98 1284.59,1136.65 1282.5,1145.5C 1277.83,1145.5 1273.17,1145.5 1268.5,1145.5C 1270.18,1133.97 1275.18,1124.14 1283.5,1116C 1292.79,1112.47 1297.46,1115.64 1297.5,1125.5 Z"/></g>
<g><path style="opacity:1" fill="#9b9997" d="M 508.5,1126.5 C 504.464,1127.02 501.297,1129.02 499,1132.5C 496.233,1137.03 493.733,1141.7 491.5,1146.5C 486.833,1146.5 482.167,1146.5 477.5,1146.5C 479.371,1135.04 484.371,1125.2 492.5,1117C 497.205,1113.51 501.705,1113.68 506,1117.5C 507.908,1120.21 508.741,1123.21 508.5,1126.5 Z"/></g>
<g><path style="opacity:1" fill="#969a98" d="M 1340.5,1116.5 C 1350.73,1122.99 1354.9,1132.32 1353,1144.5C 1352.18,1152.8 1349.68,1160.46 1345.5,1167.5C 1322.17,1167.5 1298.83,1167.5 1275.5,1167.5C 1275.5,1168.83 1275.5,1170.17 1275.5,1171.5C 1274.58,1177.77 1274.25,1184.11 1274.5,1190.5C 1269.54,1192.76 1266.37,1191.1 1265,1185.5C 1263.04,1175.8 1263.21,1166.14 1265.5,1156.5C 1288.84,1156.83 1312.18,1156.5 1335.5,1155.5C 1342.5,1143.15 1344.17,1130.15 1340.5,1116.5 Z"/></g>
<g><path style="opacity:1" fill="#9a9998" d="M 551.5,1116.5 C 560.156,1121.12 564.823,1128.45 565.5,1138.5C 563.411,1147.1 561.745,1155.76 560.5,1164.5C 559.399,1165.85 558.399,1167.35 557.5,1169C 533.493,1169.17 509.493,1169.67 485.5,1170.5C 483.935,1178.07 483.269,1185.74 483.5,1193.5C 478.619,1194.86 475.452,1192.86 474,1187.5C 471.992,1177.8 472.159,1168.13 474.5,1158.5C 498.502,1158.67 522.502,1158.5 546.5,1158C 554.759,1144.85 556.426,1131.01 551.5,1116.5 Z"/></g>
<g><path style="opacity:1" fill="#989998" d="M 912.5,1119.5 C 913.167,1121.83 913.833,1124.17 914.5,1126.5C 914.935,1134.49 915.269,1142.49 915.5,1150.5C 906.219,1172.41 896.885,1194.41 887.5,1216.5C 867.845,1217.5 848.178,1217.83 828.5,1217.5C 828.5,1213.83 828.5,1210.17 828.5,1206.5C 844.833,1206.5 861.167,1206.5 877.5,1206.5C 888.968,1177.43 900.634,1148.43 912.5,1119.5 Z"/></g>
<g><path style="opacity:1" fill="#9a9998" d="M 643.5,1133.5 C 639.862,1133.74 637.029,1135.4 635,1138.5C 626.776,1153.39 622.609,1169.39 622.5,1186.5C 618.927,1188.2 615.761,1187.53 613,1184.5C 610.316,1164.27 613.982,1145.27 624,1127.5C 632.634,1120.03 639.467,1121.53 644.5,1132C 644.43,1132.76 644.097,1133.26 643.5,1133.5 Z"/></g>
<g><path style="opacity:1" fill="#4cac7c" d="M 912.5,1119.5 C 912.56,1118.96 912.893,1118.62 913.5,1118.5C 914.48,1121.09 914.813,1123.75 914.5,1126.5C 913.833,1124.17 913.167,1121.83 912.5,1119.5 Z"/></g>
<g><path style="opacity:1" fill="#fcfbfb" d="M 508.5,1126.5 C 507.833,1133.17 507.167,1139.83 506.5,1146.5C 501.5,1146.5 496.5,1146.5 491.5,1146.5C 493.733,1141.7 496.233,1137.03 499,1132.5C 501.297,1129.02 504.464,1127.02 508.5,1126.5 Z"/></g>
<g><path style="opacity:1" fill="#fafcfb" d="M 1297.5,1125.5 C 1297.39,1132.18 1297.05,1138.85 1296.5,1145.5C 1291.83,1145.5 1287.17,1145.5 1282.5,1145.5C 1284.59,1136.65 1289.59,1129.98 1297.5,1125.5 Z"/></g>
<g><path style="opacity:1" fill="#fcfaf9" d="M 643.5,1133.5 C 640.884,1147.86 638.05,1162.2 635,1176.5C 632.142,1181.53 627.975,1184.86 622.5,1186.5C 622.609,1169.39 626.776,1153.39 635,1138.5C 637.029,1135.4 639.862,1133.74 643.5,1133.5 Z"/></g>
<g><path style="opacity:1" fill="#d0946f" d="M 310.5,1131.5 C 311.167,1133.5 311.833,1135.5 312.5,1137.5C 312.44,1138.04 312.107,1138.38 311.5,1138.5C 310.526,1136.26 310.192,1133.92 310.5,1131.5 Z"/></g>
<g><path style="opacity:1" fill="#999a99" d="M 1200.5,1160.5 C 1210.62,1167.09 1214.45,1176.42 1212,1188.5C 1209.94,1199.56 1203.77,1207.4 1193.5,1212C 1178.81,1217.19 1163.64,1219.69 1148,1219.5C 1131.61,1219.99 1115.77,1217.32 1100.5,1211.5C 1099.42,1209.19 1099.42,1206.86 1100.5,1204.5C 1117.62,1208.28 1134.95,1209.44 1152.5,1208C 1163.35,1207.85 1173.69,1205.52 1183.5,1201C 1199.16,1191.9 1204.82,1178.4 1200.5,1160.5 Z"/></g>
<g><path style="opacity:1" fill="#999b9a" d="M 1115.5,1161.5 C 1125.66,1164.5 1135.66,1168 1145.5,1172C 1148.24,1173.89 1149.91,1176.39 1150.5,1179.5C 1140.82,1177.4 1131.48,1174.23 1122.5,1170C 1119.55,1167.56 1117.22,1164.73 1115.5,1161.5 Z"/></g>
<g><path style="opacity:1" fill="#e2e2e2" d="M 1345.5,1167.5 C 1322.67,1168.5 1299.67,1168.83 1276.5,1168.5C 1276.74,1169.79 1276.4,1170.79 1275.5,1171.5C 1275.5,1170.17 1275.5,1168.83 1275.5,1167.5C 1298.83,1167.5 1322.17,1167.5 1345.5,1167.5 Z"/></g>
<g><path style="opacity:1" fill="#999a99" d="M 1330.5,1181.5 C 1334.5,1181.5 1338.5,1181.5 1342.5,1181.5C 1341.05,1190.47 1339.05,1199.31 1336.5,1208C 1326.79,1213.12 1316.46,1216.46 1305.5,1218C 1291.48,1219.72 1277.48,1219.72 1263.5,1218C 1252.18,1216.09 1242.68,1210.92 1235,1202.5C 1234.54,1201.91 1234.37,1201.24 1234.5,1200.5C 1238.58,1202.87 1242.91,1204.7 1247.5,1206C 1274.04,1211.31 1299.71,1208.64 1324.5,1198C 1326.74,1192.54 1328.74,1187.04 1330.5,1181.5 Z"/></g>
<g><path style="opacity:1" fill="#9b9a99" d="M 541.5,1183.5 C 545.833,1183.5 550.167,1183.5 554.5,1183.5C 552.67,1192.15 550.837,1200.82 549,1209.5C 541.95,1214.41 534.117,1217.58 525.5,1219C 504.053,1224 482.72,1223.66 461.5,1218C 454.24,1215.4 448.073,1211.23 443,1205.5C 442.536,1204.91 442.369,1204.24 442.5,1203.5C 445.689,1205.26 449.022,1206.76 452.5,1208C 480.934,1214.46 508.6,1212.13 535.5,1201C 538.185,1195.44 540.185,1189.6 541.5,1183.5 Z"/></g>
<g><path style="opacity:1" fill="#979998" d="M 1127.5,1186.5 C 1130.5,1186.5 1133.5,1186.5 1136.5,1186.5C 1136.5,1188.17 1136.5,1189.83 1136.5,1191.5C 1132.31,1191.98 1129.31,1190.31 1127.5,1186.5 Z"/></g>
<g><path style="opacity:1" fill="#fcf5f1" d="M 635.5,1197.5 C 633.283,1198.37 630.95,1198.7 628.5,1198.5C 629.816,1196.68 631.316,1195.02 633,1193.5C 634.595,1194.36 635.428,1195.69 635.5,1197.5 Z"/></g>
<g><path style="opacity:1" fill="#9b9a99" d="M 635.5,1197.5 C 636.812,1201.42 637.812,1205.42 638.5,1209.5C 628.819,1218.23 617.319,1222.57 604,1222.5C 592.068,1222.95 582.901,1218.29 576.5,1208.5C 595.625,1214.38 612.959,1211.05 628.5,1198.5C 630.95,1198.7 633.283,1198.37 635.5,1197.5 Z"/></g>
</svg>
